<svg width="90" height="62" viewBox="0 0 90 62" fill="none" xmlns="http://www.w3.org/2000/svg">
<path d="M44.76 53.32C44.76 50.905 46.6987 48.97 49.1175 48.97C51.5325 48.97 53.4675 50.905 53.4675 53.32C53.4695 53.892 53.3583 54.4587 53.1405 54.9876C52.9226 55.5164 52.6023 55.997 52.1981 56.4016C51.7938 56.8063 51.3135 57.127 50.7848 57.3453C50.2561 57.5636 49.6895 57.6752 49.1175 57.6737C48.5452 57.6762 47.9781 57.5655 47.4488 57.3478C46.9195 57.1302 46.4384 56.81 46.0334 56.4056C45.6284 56.0013 45.3074 55.5208 45.0888 54.9919C44.8703 54.463 44.7585 53.896 44.76 53.3237M62.475 53.3237C62.475 50.905 64.4137 48.9662 66.8288 48.9662C69.2437 48.9662 71.1825 50.905 71.1825 53.32C71.1825 55.735 69.2438 57.6737 66.8325 57.6737C66.2602 57.6762 65.6931 57.5655 65.1638 57.3478C64.6345 57.1302 64.1534 56.81 63.7484 56.4056C63.3434 56.0013 63.0224 55.5208 62.8038 54.9919C62.5853 54.463 62.4735 53.896 62.475 53.3237ZM21.4125 53.3237C21.4125 50.905 23.3512 48.9662 25.7662 48.9662C28.1812 48.9662 30.1163 50.905 30.1163 53.32C30.1163 55.735 28.1812 57.6737 25.7662 57.6737C25.1943 57.6757 24.6275 57.5646 24.0987 57.3467C23.5698 57.1289 23.0892 56.8086 22.6846 56.4043C22.28 56 21.9593 55.5197 21.741 54.991C21.5226 54.4624 21.411 53.8957 21.4125 53.3237ZM3.6975 53.3237C3.6975 50.905 5.63625 48.9662 8.05125 48.9662C10.4663 48.9662 12.405 50.905 12.405 53.32C12.407 53.8923 12.2957 54.4593 12.0776 54.9884C11.8595 55.5176 11.5389 55.9983 11.1342 56.403C10.7296 56.8077 10.2488 57.1283 9.7197 57.3464C9.19058 57.5645 8.62355 57.6757 8.05125 57.6737C7.47958 57.6752 6.91326 57.5637 6.38482 57.3456C5.85639 57.1276 5.37626 56.8072 4.97203 56.403C4.5678 55.9987 4.24743 55.5186 4.02935 54.9902C3.81127 54.4617 3.69977 53.8954 3.70125 53.3237M39.5137 45.6287H35.7262V60.865H39.5137V45.6287ZM12.375 60.865H16.1625V45.6287H12.375V46.8512C11.0548 45.9324 9.48348 45.4427 7.875 45.4487C3.5175 45.4487 0 48.9662 0 53.3237C0 57.7037 3.5175 61.195 7.875 61.195C9.54375 61.195 11.0925 60.6887 12.375 59.7925V60.865ZM71.1525 60.865H74.94V45.6287H71.1525V46.8512C69.8323 45.9324 68.261 45.4427 66.6525 45.4487C62.295 45.4487 58.7775 48.9662 58.7775 53.3237C58.774 54.3587 58.9754 55.3841 59.37 56.3409C59.7645 57.2977 60.3445 58.167 61.0765 58.8986C61.8085 59.6303 62.6781 60.2099 63.6351 60.604C64.592 60.9981 65.6175 61.199 66.6525 61.195C68.3213 61.195 69.87 60.6887 71.1525 59.7925V60.865ZM76.3425 55.915C76.4625 58.99 79.0875 61.165 83.4675 61.165C87.0487 61.165 90 59.6125 90 56.185C90 53.8 88.6575 52.3975 85.5563 51.7975L83.1413 51.325C81.5887 51.025 80.5163 50.725 80.5163 49.8025C80.5163 48.79 81.5588 48.34 82.8713 48.34C84.7838 48.34 85.5562 49.2962 85.6162 50.4287H89.4338C89.2238 47.4475 86.8388 45.4487 82.9912 45.4487C79.0275 45.4487 76.6687 47.6237 76.6687 50.4587C76.6687 53.9162 79.4737 54.4825 81.8887 54.9325L83.8875 55.2887C85.32 55.5587 85.9463 55.975 85.9463 56.8112C85.9463 57.5575 85.23 58.3 83.5275 58.3C81.0525 58.3 80.25 57.0175 80.22 55.915H76.3425ZM30.09 40.4387V46.8512C28.7698 45.9324 27.1985 45.4427 25.59 45.4487C21.2325 45.4487 17.715 48.9662 17.715 53.3237C17.715 57.7037 21.2325 61.195 25.59 61.195C27.255 61.195 28.8075 60.6887 30.09 59.7925V60.865H33.8775V40.4387H30.09ZM53.4375 40.4387V46.8512C52.1173 45.9324 50.546 45.4427 48.9375 45.4487C44.5838 45.4487 41.0625 48.9662 41.0625 53.3237C41.059 54.3587 41.2604 55.3841 41.655 56.3409C42.0495 57.2977 42.6295 58.167 43.3615 58.8986C44.0935 59.6303 44.9631 60.2099 45.9201 60.604C46.877 60.9981 47.9025 61.199 48.9375 61.195C50.6063 61.195 52.155 60.6887 53.4375 59.7925V60.865H57.225V40.4387H53.4375ZM9.84 35.9387L12.405 40.4387H30.09L23.0813 28.33L9.84375 35.935L9.84 35.9387ZM39.5137 44.2262V40.4387H53.4375L38.5875 14.7325L25.3162 22.3375L35.7262 40.4387V44.2262H39.5137ZM59.0775 40.4387H76.7887L53.8875 0.804993L40.6462 8.43999L59.0775 40.4387Z" fill="black"/>
</svg>
