<svg width="90" height="26" viewBox="0 0 90 26" fill="none" xmlns="http://www.w3.org/2000/svg">
<path d="M0.273 0.906654H11.9569C22.0028 0.906654 25.9339 6.80316 25.9339 13.0454C25.9339 19.3968 20.8927 25.0567 11.3017 25.0567H0.291C0.09075 25.0567 0.018 24.9292 0.018 24.82C0.018 24.6925 0.1455 24.5834 0.327375 24.5834H2.38387C3.021 24.5834 3.4395 24.2013 3.4395 23.4914V2.50828C3.4395 1.98065 3.18488 1.39828 2.3475 1.39828H0.254625C0.091125 1.39828 0 1.28915 0 1.16165C0 1.05253 0.036375 0.906654 0.273 0.906654ZM7.57087 23.9287C7.57087 24.4563 7.8075 24.6202 8.15325 24.6202H11.247C18.8723 24.6202 21.6386 18.7784 21.6386 12.9183C21.6386 7.05815 18.7084 1.37991 12.2662 1.37991H8.06213C7.62525 1.37991 7.58887 1.74403 7.58887 1.90753L7.57087 23.9287ZM27.0983 0.906654C26.9164 0.906654 26.7525 0.979403 26.7525 1.1249C26.7525 1.2704 26.8436 1.36153 27.0071 1.36153H29.0636C29.5369 1.36153 29.9917 1.68928 29.9917 2.59903V23.5098C29.9917 23.9467 29.664 24.6018 29.0816 24.6018H27.0439C26.8072 24.6018 26.7892 24.7837 26.7892 24.8564C26.7892 24.9292 26.7709 25.0567 27.0439 25.0567H36.9442C37.0897 25.0567 37.29 25.0383 37.29 24.8928C37.29 24.7473 37.2536 24.6018 36.999 24.6018H35.0876C34.8146 24.6018 34.0684 24.4379 34.0684 23.6009V2.38078C34.0684 1.78003 34.4505 1.37991 35.142 1.37991H37.0166C37.1805 1.37991 37.2713 1.28878 37.2713 1.16165C37.2713 1.03415 37.1801 0.925029 36.9619 0.925029C36.96 0.907029 27.0634 0.959529 27.0983 0.906654ZM42.5674 12.991C42.5674 6.3119 45.552 0.907029 51.1571 0.907029C56.6531 0.907029 59.7469 6.31228 59.7469 12.991C59.7469 19.6698 56.9265 25.075 51.1575 25.075C45.5704 25.0934 42.5674 19.6698 42.5674 12.991ZM51.1575 25.5847C59.1285 25.5847 64.1516 19.9432 64.1516 13.009C64.1516 6.07491 59.1833 0.415405 51.1575 0.415405C43.1501 0.415405 38.1634 6.0569 38.1634 12.991C38.1634 19.9252 43.35 25.5847 51.1575 25.5847ZM89.6299 24.9112C86.4997 25.2389 84.7706 20.1067 83.1874 17.668C82.0046 15.8662 79.4929 14.0283 77.0179 13.6642C81.0945 13.4275 85.6624 12.1173 85.6624 7.49466C85.6624 3.74578 83.3512 0.906654 74.8703 0.906654H65.0974C64.9699 0.906654 64.8428 0.979403 64.8428 1.1249C64.8428 1.2704 64.9703 1.36153 65.0974 1.36153H67.3357C67.809 1.36153 68.2639 1.68928 68.2639 2.59903V23.5098C68.2639 23.9467 67.9361 24.6018 67.3538 24.6018H65.1525C64.9706 24.6018 64.8979 24.7473 64.8979 24.82C64.8979 24.8928 64.9706 25.0567 65.1525 25.0567H75.5257C75.6712 25.0567 75.7987 24.9839 75.7987 24.8384C75.7987 24.6929 75.7076 24.6018 75.5078 24.6018H73.4149C73.1419 24.6018 72.3956 24.4199 72.3956 23.6009V13.7189H73.4693C78.6015 13.7189 78.9836 19.2877 81.5314 22.4725C83.7154 25.2025 86.5725 25.5483 88.1921 25.5483C88.8836 25.5483 89.3569 25.5299 89.7937 25.4208C90.0667 25.3297 90.1215 24.8568 89.6299 24.9112ZM73.4329 1.3619H74.9434C77.5275 1.3619 81.7132 2.38115 81.7132 7.2584C81.7132 11.7355 78.0007 13.246 74.5609 13.246H72.3589V2.38078C72.3593 1.76203 72.7414 1.3619 73.4329 1.3619Z" fill="black"/>
</svg>
