<svg width="400" height="155" viewBox="0 0 400 155" fill="none" xmlns="http://www.w3.org/2000/svg">
<path d="M124.087 79.8149L127.003 83.1669L132.869 76.3908V91.4011H137.923V69.567H132.766L124.087 79.8149Z" fill="black"/>
<path d="M109.912 69.567H104.802V91.4011H109.867V76.3908L121.369 89.719L124.302 86.3178L109.912 69.567Z" fill="black"/>
<path d="M168.311 84.6329L172.986 91.4008H179.08L163.792 69.5671H158.298L158.293 69.5739L165.948 81.1528H155.776L158.431 77.3781L155.662 73.2761L142.78 91.4008H148.479L153.295 84.6344L168.311 84.6329Z" fill="black"/>
<path d="M212.821 69.5669H207.754V80.1699L212.821 83.8579V69.5669Z" fill="black"/>
<path d="M188.365 69.567H183.21V91.4011H188.279V75.0862L209.048 91.4011H212.821V88.748L188.365 69.567Z" fill="black"/>
<mask id="mask0_86_438" style="mask-type:luminance" maskUnits="userSpaceOnUse" x="0" y="-109" width="400" height="410">
<path d="M0 301H400V-109H0V301Z" fill="white"/>
</mask>
<g mask="url(#mask0_86_438)">
<path d="M248.23 75.626C245.817 73.81 242.096 72.647 237.922 72.647C231.26 72.647 225.754 75.6109 224.876 79.4572H219.297C220.026 73.4871 228.455 69.0866 237.991 69.0866C243.662 69.0866 248.757 70.6172 252.188 73.08L248.23 75.626Z" fill="black"/>
<path d="M237.451 88.3514C231.889 88.3514 227.155 86.1672 225.389 83.1117H219.697C221.579 88.3781 228.98 91.8909 237.766 91.8909C239.806 91.8909 242.154 91.7448 244.103 91.3941C248.503 90.6052 253.307 88.533 253.307 85.2618V79.4568H237.393L237.381 83.1117H248.221V84.7709C248.221 86.603 244.444 87.6627 242.133 88.0348C240.889 88.235 239.292 88.3514 238.003 88.3514H237.451Z" fill="black"/>
<path d="M295.198 80.5043C295.198 73.9927 287.043 68.941 277.025 68.941C267.325 68.941 258.804 73.7594 258.804 80.1537C258.804 86.1828 265.496 91.0133 274.512 91.7794V88.1317C268.614 87.4275 264.156 84.2338 264.156 80.3928C264.156 76.0356 269.888 72.501 276.957 72.501C284.028 72.501 289.759 76.0356 289.759 80.3928C289.759 84.2041 285.371 87.3764 279.541 88.1142V91.7696C288.192 91.0075 295.198 86.3571 295.198 80.5043Z" fill="black"/>
</g>
</svg>
