<svg width="420" height="281" viewBox="0 0 420 281" fill="none" xmlns="http://www.w3.org/2000/svg">
<path d="M171.15 67.186C170.214 65.6762 167.65 64.2256 164.675 64.2256C160.851 64.2256 159.014 65.7692 159.014 67.7316C159.014 70.0322 161.827 70.692 165.104 71.0515C170.791 71.7324 176.107 73.1661 176.107 79.4675C176.107 85.3503 170.721 87.8793 164.636 87.8793C159.053 87.8793 154.761 86.2173 152.731 81.3876L157.023 79.2391C158.235 82.1446 161.398 83.426 164.714 83.426C167.952 83.426 170.997 82.3349 170.997 79.4675C170.997 76.9765 168.302 75.9573 164.675 75.5809C159.092 74.9381 153.943 73.5044 153.943 67.5836C153.943 62.1491 159.482 59.9245 164.517 59.8865C168.77 59.8865 173.18 61.0537 175.249 65.1306L171.15 67.186Z" fill="#FFFDFD"/>
<path d="M186.883 63.3755V68.6535H192.189V72.6162H186.843V80.6516C186.843 82.4236 187.858 83.2906 189.341 83.2906C190.142 83.2684 190.927 83.0764 191.643 82.7281L192.955 86.6486C191.707 87.1533 190.37 87.4232 189.018 87.4437C184.844 87.5917 182.109 85.291 182.109 80.6516V72.6162H178.522V68.6535H182.109V63.8661L186.883 63.3755Z" fill="#FFFDFD"/>
<path d="M215.565 68.6156L203.818 94.9886H198.59L202.177 86.9152L194.491 68.6156H200.034L202.961 76.651L204.794 81.8909L206.784 76.7609L210.284 68.6113L215.565 68.6156Z" fill="#FFFDFD"/>
<path d="M222.784 60.8464V87.2153H218.063V60.8464H222.784Z" fill="#FFFDFD"/>
<path d="M231.022 79.5563C231.332 81.857 233.402 83.519 236.757 83.519C238.507 83.519 240.817 82.8762 241.907 81.7851L244.969 84.6905C242.922 86.7248 239.606 87.7271 236.687 87.7271C230.055 87.7271 226.113 83.7643 226.113 77.8055C226.113 72.1468 230.094 68.0784 236.337 68.0784C242.777 68.0784 246.794 71.9269 246.054 79.5817L231.022 79.5563ZM241.478 75.7501C241.167 73.3394 239.216 72.1299 236.486 72.1299C233.909 72.1299 231.801 73.3394 231.101 75.7501H241.478Z" fill="#FFFDFD"/>
<path d="M273.875 68.091L264.981 79.5563H263.966L255.259 68.0529V87.2534H250.106V60.8464H256.038L264.582 72.2018L273.131 60.8464H279.024V87.2534H273.875V68.091Z" fill="#FFFDFD"/>
<path d="M299.163 68.6154H303.73V87.2238H299.25L299.014 84.5087C297.924 86.6951 294.919 87.7524 292.771 87.7905C287.083 87.8285 282.857 84.4325 282.857 77.9069C282.857 71.4913 287.267 68.1375 292.889 68.1798C295.466 68.1798 297.924 69.3513 299.014 71.1995L299.163 68.6154ZM287.613 77.8985C287.613 81.4425 290.15 83.5571 293.3 83.5571C300.794 83.5571 300.794 72.2779 293.3 72.2779C290.15 72.2779 287.613 74.3502 287.613 77.8985Z" fill="#FFFDFD"/>
<path d="M320.005 68.6155H325.693V68.7677L319.375 77.7843L326.086 87.0885V87.2027H320.399L316.225 80.9773L312.047 87.2027H306.359V87.0885L313.071 77.7843L306.749 68.7677V68.6155H312.436L316.225 74.9169L320.005 68.6155Z" fill="#FFFDFD"/>
<path fill-rule="evenodd" clip-rule="evenodd" d="M140.381 62.7411L123.077 53.0859L105.77 62.7411V72.6839L122.434 81.9881L130.226 77.6363L135.914 74.4728L136.071 74.5616V79.6366L123.077 86.8812L105.77 77.2176V82.0515L123.077 91.7067L140.381 82.0515V72.1341L123.716 62.8299L110.25 70.3452L110.092 70.2648V65.1602L123.077 57.9157L140.381 67.5793V62.7411ZM125.895 75.2087L122.434 77.1541L114.559 72.7854L123.699 67.6808L131.547 72.058L125.895 75.2087Z" fill="#FFFDFD"/>
</svg>
