<svg width="90" height="38" viewBox="0 0 90 38" fill="none" xmlns="http://www.w3.org/2000/svg">
<path d="M32.1075 0.25L32.115 0.2725L42.5925 28.8512V1.73875H38.28V1.47625H53.13C60.2663 1.47625 65.2463 5.13625 65.2463 10.3825C65.2463 14.2075 61.8337 17.3875 56.76 18.2913L55.8263 18.4075L56.7638 18.505C59.8425 18.8575 62.2875 19.8025 64.02 21.3175L64.0312 21.3288L71.7788 0.25H72.0413L72.0487 0.2725L85.3837 36.64H90V36.9025H75.3075V36.64H79.635L75.2475 24.6813H66.3488V24.6888L66.3975 24.8275C66.75 25.8813 66.93 26.9875 66.9187 28.1012V32.5863C66.9187 34.8925 67.935 37.2288 69.8812 37.2288C71.0212 37.2288 71.9325 36.8275 73.02 35.8338L73.1738 35.9762C71.9963 37.2213 70.5675 37.75 68.4262 37.75C66.8138 37.75 65.4262 37.36 64.3162 36.595L64.1062 36.445C62.6437 35.335 61.6912 33.5275 61.2825 31.0637L61.215 30.6663L61.1475 30.0662L61.14 29.9613L58.6875 36.6362H62.1675V36.8988H54.885V36.6362H58.4025L61.095 29.3087V29.29C61.067 28.858 61.0507 28.4254 61.0462 27.9925V24.79C61.0462 20.8562 58.1213 18.6025 53.0212 18.6025H48.0075V36.64H52.35V36.9025H35.3737V36.64H39.7012L35.3138 24.6813H23.145L18.8025 36.5088L18.9825 36.4787C24.6862 35.4962 27.3075 31.1425 27.345 26.56H27.6075V36.9025H0L20.4938 1.73875H12.255C5.4225 1.73875 2.3325 7.015 2.28375 12.2762H2.025V1.47625H26.9025L26.7525 1.73875L6.40875 36.64H17.1112C17.3775 36.64 17.64 36.6287 17.9062 36.6062L18.1763 36.5837L18.5138 36.5463L31.8413 0.25H32.1037H32.1075ZM69.1687 8.10625L64.245 21.5162L64.2712 21.5425L64.5225 21.79C65.2462 22.5288 65.8238 23.4025 66.2175 24.355L66.2438 24.4187H75.15L69.1687 8.10625ZM29.2388 8.10625L23.2425 24.4187H35.22L29.2388 8.10625ZM51.8363 1.73875H48.0113V18.34H53.0212C58.095 18.34 59.6475 16.4912 59.6475 10.4388C59.6475 4.75 56.9475 1.73875 51.8363 1.73875Z" fill="black"/>
</svg>
